<svg width="409" height="164" viewBox="0 0 409 164" fill="none" xmlns="http://www.w3.org/2000/svg">
<g clip-path="url(#clip0_95_77)">
<path d="M0 0H409V156.039C409 160.215 405.615 163.6 401.439 163.6H7.56134C3.38533 163.6 0 160.215 0 156.039V0Z" fill="#1F1F1F"/>
<g filter="url(#filter0_i_95_77)">
<path d="M421.533 10.5982L239.47 186.705L273.883 222.283L312.913 184.53L293.686 164.653L314.384 144.633L333.611 164.509L343.271 87.2753C361.901 105.998 392.137 106.401 411.26 88.1072L377.627 53.3363L455.947 46.1758L421.533 10.5982Z" fill="#07FF00"/>
<path d="M239.467 186.702L421.531 10.5952L387.117 -24.9824L348.088 12.7702L367.314 32.6469L346.616 52.6676L327.39 32.7909L317.729 110.025C299.1 91.3024 268.864 90.8992 249.74 109.193L283.374 143.964L205.054 151.125L239.467 186.702Z" fill="#07FF00"/>
</g>
</g>
<defs>
<filter id="filter0_i_95_77" x="205.054" y="-24.9824" width="250.894" height="251.265" filterUnits="userSpaceOnUse" color-interpolation-filters="sRGB">
<feFlood flood-opacity="0" result="BackgroundImageFix"/>
<feBlend mode="normal" in="SourceGraphic" in2="BackgroundImageFix" result="shape"/>
<feColorMatrix in="SourceAlpha" type="matrix" values="0 0 0 0 0 0 0 0 0 0 0 0 0 0 0 0 0 0 127 0" result="hardAlpha"/>
<feOffset dy="4"/>
<feGaussianBlur stdDeviation="2"/>
<feComposite in2="hardAlpha" operator="arithmetic" k2="-1" k3="1"/>
<feColorMatrix type="matrix" values="0 0 0 0 0 0 0 0 0 0 0 0 0 0 0 0 0 0 0.25 0"/>
<feBlend mode="normal" in2="shape" result="effect1_innerShadow_95_77"/>
</filter>
<clipPath id="clip0_95_77">
<rect width="409" height="163.902" fill="white"/>
</clipPath>
</defs>
</svg>
